<?xml version="1.0" encoding="UTF-8" standalone="no"?>
<svg
   width="176.02585"
   height="46"
   viewBox="0 0 176.02585 46"
   fill="none"
   version="1.1"
   id="svg538"
   sodipodi:docname="7e697c5bab4f819328df.svg"
   inkscape:version="1.2.2 (b0a8486541, 2022-12-01)"
   inkscape:export-filename="../../../../../mnt/Personal/arduxmon-iot-projects/Pictures/logo-portainer.svg"
   inkscape:export-xdpi="96"
   inkscape:export-ydpi="96"
   xmlns:inkscape="http://www.inkscape.org/namespaces/inkscape"
   xmlns:sodipodi="http://sodipodi.sourceforge.net/DTD/sodipodi-0.dtd"
   xmlns="http://www.w3.org/2000/svg"
   xmlns:svg="http://www.w3.org/2000/svg">
  <sodipodi:namedview
     id="namedview540"
     pagecolor="#505050"
     bordercolor="#ffffff"
     borderopacity="1"
     inkscape:showpageshadow="0"
     inkscape:pageopacity="0"
     inkscape:pagecheckerboard="1"
     inkscape:deskcolor="#505050"
     showgrid="false"
     inkscape:zoom="4.819491"
     inkscape:cx="130.09673"
     inkscape:cy="22.823987"
     inkscape:window-width="1920"
     inkscape:window-height="1018"
     inkscape:window-x="1920"
     inkscape:window-y="30"
     inkscape:window-maximized="1"
     inkscape:current-layer="g667" />
  <g
     clip-path="url(#clip0_10456_446427)"
     id="g506">
    <g
       filter="url(#filter0_dd_10456_446427)"
       id="g448">
      <path
         fill-rule="evenodd"
         clip-rule="evenodd"
         d="m 10.8935,9.95117 h -0.6982 v 3.65823 h 0.6982 z"
         fill="#13bef9"
         id="path418" />
      <path
         fill-rule="evenodd"
         clip-rule="evenodd"
         d="m 13.8954,9.95117 h -0.6981 v 3.65823 h 0.6981 z"
         fill="#13bef9"
         id="path420" />
      <path
         fill-rule="evenodd"
         clip-rule="evenodd"
         d="M 17.998,2.96962 17.2823,1.71484 5.34375,8.6956 6.05935,9.9504 Z"
         fill="#13bef9"
         id="path422" />
      <path
         fill-rule="evenodd"
         clip-rule="evenodd"
         d="M 17.9277,2.96962 18.6434,1.71484 30.5821,8.6956 29.8664,9.9504 Z"
         fill="#13bef9"
         id="path424" />
      <path
         fill-rule="evenodd"
         clip-rule="evenodd"
         d="M 32.6936,9.96873 V 8.51953 H -0.015625 v 1.4492 z"
         fill="#13bef9"
         id="path426" />
      <path
         fill-rule="evenodd"
         clip-rule="evenodd"
         d="M 19.7422,30.4335 V 8.96094 h 1.4312 V 31.4762 c -0.384,-0.4418 -0.8727,-0.7599 -1.4312,-1.0427 z"
         fill="#13bef9"
         id="path428" />
      <path
         fill-rule="evenodd"
         clip-rule="evenodd"
         d="M 17.2988,30.0627 V -0.228516 h 1.4313 V 30.2395 c -0.4015,-0.1944 -1.3789,-0.1768 -1.4313,-0.1768 z"
         fill="#13bef9"
         id="path430" />
      <path
         fill-rule="evenodd"
         clip-rule="evenodd"
         d="M 3.73725,33.0852 C 1.99182,31.7774 0.839844,29.692 0.839844,27.3238 c 0,-1.2548 0.331626,-2.4919 0.942526,-3.5699 H 14.0003 c 0.6284,1.078 0.9426,2.3151 0.9426,3.5699 0,1.0957 -0.1397,2.1208 -0.576,3.0397 -0.9251,-0.9013 -2.2865,-1.2901 -3.6654,-1.2901 -2.4436,0 -4.5381,1.5376 -5.0792,3.835 -0.192,-0.0176 -0.3142,-0.0353 -0.5062,-0.0353 -0.4712,0.0177 -0.925,0.0884 -1.37885,0.2121 z"
         fill="#13bef9"
         id="path432" />
      <path
         fill-rule="evenodd"
         clip-rule="evenodd"
         d="M 9.74131,15.2344 H 6.04102 v 3.7643 h 3.70029 z"
         fill="#13bef9"
         id="path434" />
      <path
         fill-rule="evenodd"
         clip-rule="evenodd"
         d="M 5.5694,15.2344 H 1.86914 v 3.7643 H 5.5694 Z"
         fill="#13bef9"
         id="path436" />
      <path
         fill-rule="evenodd"
         clip-rule="evenodd"
         d="M 5.5694,19.4238 H 1.86914 v 3.7643 H 5.5694 Z"
         fill="#13bef9"
         id="path438" />
      <path
         fill-rule="evenodd"
         clip-rule="evenodd"
         d="M 9.74131,19.4238 H 6.04102 v 3.7643 h 3.70029 z"
         fill="#13bef9"
         id="path440" />
      <path
         fill-rule="evenodd"
         clip-rule="evenodd"
         d="m 13.8956,19.4238 h -3.7003 v 3.7643 h 3.7003 z"
         fill="#13bef9"
         id="path442" />
      <path
         fill-rule="evenodd"
         clip-rule="evenodd"
         d="m 13.8956,13.2207 h -3.7003 v 3.7643 h 3.7003 z"
         fill="#13bef9"
         id="path444" />
      <path
         fill-rule="evenodd"
         clip-rule="evenodd"
         d="m 6.2331,33.6512 c 0.5061,-2.1737 2.4436,-3.7996 4.7475,-3.7996 1.4836,0 2.8102,0.6715 3.7178,1.7319 0.7854,-0.5479 1.7279,-0.866 2.7577,-0.866 2.688,0 4.8698,2.2091 4.8698,4.9308 0,0.5655 -0.0873,1.0957 -0.2618,1.6082 0.5934,0.8129 0.9599,1.838 0.9599,2.9337 0,2.7216 -2.1817,4.9307 -4.8697,4.9307 -1.1869,0 -2.269,-0.4241 -3.1068,-1.1311 -0.8902,1.2548 -2.3389,2.0854 -3.9796,2.0854 -1.8851,0 -3.5258,-1.0957 -4.3461,-2.6862 -0.3316,0.0706 -0.6633,0.106 -1.0124,0.106 -2.6879,0 -4.887134,-2.2091 -4.887134,-4.9307 0,-2.7216 2.181774,-4.9307 4.887134,-4.9307 0.1746,-0.0177 0.3491,-0.0177 0.5237,0.0176 z"
         fill="#13bef9"
         id="path446" />
    </g>
    <g
       id="g649"
       transform="matrix(1.1340444,0,0,1.1340444,-3.6395571,-3.8327566)">
      <path
         d="m 43.542058,32.460936 c 0.249273,-0.326579 0.588744,-0.601637 1.018512,-0.825124 0.429769,-0.223438 0.915372,-0.335207 1.45686,-0.335207 0.618842,0 1.181801,0.154711 1.688925,0.464132 0.515702,0.300843 0.919686,0.726298 1.211901,1.276364 0.292215,0.550115 0.438347,1.181851 0.438347,1.895206 0,0.713405 -0.146132,1.353719 -0.438347,1.920992 -0.292215,0.558694 -0.696199,0.997041 -1.211901,1.315041 -0.507124,0.309421 -1.070083,0.464132 -1.688925,0.464132 -0.541488,0 -1.022827,-0.107405 -1.443967,-0.322314 -0.421141,-0.223438 -0.764975,-0.498496 -1.031405,-0.825124 V 41.89829 H 42.072306 V 31.416638 h 1.469752 z m 4.319008,2.475371 c 0,-0.489917 -0.103141,-0.911058 -0.309422,-1.263471 -0.197702,-0.360991 -0.464132,-0.631735 -0.799338,-0.812231 -0.326629,-0.189074 -0.678992,-0.283636 -1.05719,-0.283636 -0.369571,0 -0.721984,0.09456 -1.05719,0.283636 -0.326628,0.189124 -0.593058,0.464132 -0.799339,0.825124 -0.197703,0.360991 -0.296529,0.786446 -0.296529,1.276363 0,0.489917 0.09883,0.919686 0.296529,1.289256 0.206281,0.360992 0.472711,0.63605 0.799339,0.825124 0.335206,0.189124 0.687619,0.283636 1.05719,0.283636 0.378198,0 0.730561,-0.09451 1.05719,-0.283636 0.335206,-0.197653 0.601636,-0.481289 0.799338,-0.850909 0.206281,-0.36957 0.309422,-0.799339 0.309422,-1.289256 z"
         fill="#ffffff"
         id="path450"
         style="stroke-width:0.495868" />
      <path
         d="m 53.891363,38.636472 c -0.670413,0 -1.276364,-0.150397 -1.817851,-0.45124 -0.541488,-0.309421 -0.966942,-0.73914 -1.276364,-1.289256 -0.309421,-0.558644 -0.464132,-1.203272 -0.464132,-1.933884 0,-0.721983 0.159025,-1.362297 0.477025,-1.920991 0.318,-0.558645 0.752082,-0.988413 1.302148,-1.289256 0.550066,-0.300793 1.164645,-0.45124 1.843636,-0.45124 0.678992,0 1.293571,0.150447 1.843637,0.45124 0.550066,0.300843 0.984148,0.730611 1.302148,1.289256 0.318,0.558694 0.477025,1.199008 0.477025,1.920991 0,0.721984 -0.163289,1.362347 -0.489917,1.920992 -0.326628,0.558694 -0.773554,0.992727 -1.340827,1.302148 -0.558694,0.300843 -1.177537,0.45124 -1.856528,0.45124 z m 0,-1.276364 c 0.378198,0 0.730562,-0.09025 1.05719,-0.270743 0.335206,-0.180496 0.60595,-0.45124 0.812231,-0.812232 0.206281,-0.360991 0.309421,-0.799338 0.309421,-1.315041 0,-0.515702 -0.09883,-0.949735 -0.296528,-1.302148 -0.197703,-0.360992 -0.459819,-0.631736 -0.786447,-0.812231 -0.326628,-0.180496 -0.678991,-0.270744 -1.05719,-0.270744 -0.378198,0 -0.730562,0.09025 -1.05719,0.270744 -0.318,0.180495 -0.571586,0.451239 -0.760661,0.812231 -0.189074,0.352413 -0.283636,0.786446 -0.283636,1.302148 0,0.764975 0.193388,1.358033 0.580165,1.779174 0.395356,0.412561 0.889587,0.618842 1.482645,0.618842 z"
         fill="#ffffff"
         id="path452"
         style="stroke-width:0.495868" />
      <path
         d="m 60.501329,32.448043 c 0.214859,-0.360992 0.498496,-0.640314 0.850909,-0.838016 0.360992,-0.206281 0.786446,-0.309422 1.276363,-0.309422 v 1.521322 h -0.373884 c -0.575901,0 -1.014248,0.146133 -1.315041,0.438347 -0.292264,0.292265 -0.438347,0.799339 -0.438347,1.521322 v 3.738843 h -1.469752 v -7.103801 h 1.469752 z"
         fill="#ffffff"
         id="path454"
         style="stroke-width:0.495868" />
      <path
         d="m 65.694353,32.615646 v 3.932231 c 0,0.266479 0.06015,0.459868 0.180496,0.580165 0.128926,0.111769 0.343785,0.167604 0.644628,0.167604 h 0.902479 v 1.224793 h -1.16033 c -0.661835,0 -1.168909,-0.154711 -1.521322,-0.464132 -0.352413,-0.309422 -0.528595,-0.812232 -0.528595,-1.50843 v -3.932231 h -0.838017 v -1.199008 h 0.838017 v -1.766281 h 1.482644 v 1.766281 h 1.727603 v 1.199008 z"
         fill="#ffffff"
         id="path456"
         style="stroke-width:0.495868" />
      <path
         d="m 68.286601,34.936307 c 0,-0.713355 0.146033,-1.345091 0.438595,-1.895206 0.300496,-0.550066 0.704628,-0.975521 1.211901,-1.276364 0.515702,-0.309421 1.082975,-0.464132 1.701818,-0.464132 0.558347,0 1.044297,0.111769 1.456859,0.335207 0.420992,0.214909 0.756198,0.485653 1.00562,0.812231 v -1.031405 h 1.482644 v 7.103801 h -1.482644 v -1.05719 c -0.249422,0.335207 -0.589091,0.614578 -1.018513,0.838016 -0.429917,0.223488 -0.919834,0.335207 -1.469751,0.335207 -0.610414,0 -1.169257,-0.154711 -1.676033,-0.464132 -0.507273,-0.318 -0.911405,-0.756347 -1.211901,-1.315041 -0.292562,-0.567273 -0.438595,-1.207587 -0.438595,-1.920992 z m 5.814793,0.02579 c 0,-0.489917 -0.103141,-0.915372 -0.309422,-1.276363 -0.197851,-0.360997 -0.460165,-0.636005 -0.786446,-0.825129 -0.326777,-0.189074 -0.679339,-0.283636 -1.05719,-0.283636 -0.378347,0 -0.730909,0.09456 -1.05719,0.283636 -0.326777,0.180496 -0.593058,0.45124 -0.799339,0.812231 -0.197851,0.352413 -0.296529,0.773554 -0.296529,1.263471 0,0.489917 0.09868,0.919686 0.296529,1.289256 0.206281,0.36962 0.472562,0.653256 0.799339,0.850909 0.335207,0.189124 0.687273,0.283636 1.05719,0.283636 0.377851,0 0.730413,-0.09451 1.05719,-0.283636 0.326281,-0.189074 0.588595,-0.464132 0.786446,-0.825124 0.206281,-0.36957 0.309422,-0.799339 0.309422,-1.289256 z"
         fill="#ffffff"
         id="path458"
         style="stroke-width:0.495868" />
      <path
         d="m 78.26222,30.475481 c -0.266777,0 -0.489918,-0.09025 -0.670413,-0.270743 -0.180496,-0.180496 -0.270744,-0.403934 -0.270744,-0.670394 0,-0.266444 0.09025,-0.489917 0.270744,-0.670413 0.180495,-0.180496 0.403636,-0.270744 0.670413,-0.270744 0.257851,0 0.477024,0.09025 0.65752,0.270744 0.180496,0.180496 0.270744,0.403969 0.270744,0.670413 0,0.26646 -0.09025,0.489898 -0.270744,0.670394 -0.180496,0.180495 -0.399669,0.270743 -0.65752,0.270743 z m 0.721983,0.941157 v 7.103801 h -1.469752 v -7.103801 z"
         fill="#ffffff"
         id="path460"
         style="stroke-width:0.495868" />
      <path
         d="m 84.497756,31.300605 c 0.558843,0 1.05719,0.116033 1.495537,0.348099 0.446777,0.232066 0.794876,0.575901 1.044298,1.031405 0.249421,0.455554 0.373884,1.00562 0.373884,1.650248 v 4.190082 H 85.954616 V 34.54953 c 0,-0.636 -0.159174,-1.121652 -0.477025,-1.456859 -0.317851,-0.343785 -0.752231,-0.515702 -1.302149,-0.515702 -0.549917,0 -0.988264,0.171917 -1.315041,0.515702 -0.317851,0.335207 -0.477025,0.820859 -0.477025,1.456859 v 3.970909 h -1.469752 v -7.103801 h 1.469752 v 0.812232 c 0.240496,-0.292215 0.545951,-0.519967 0.915372,-0.683306 0.378347,-0.163289 0.778017,-0.244959 1.199008,-0.244959 z"
         fill="#ffffff"
         id="path462"
         style="stroke-width:0.495868" />
      <path
         d="m 95.797094,34.794489 c 0,0.266479 -0.01736,0.507124 -0.05157,0.721983 h -5.427768 c 0.04314,0.567273 0.253388,1.022827 0.631735,1.366612 0.378347,0.343834 0.842479,0.515702 1.392397,0.515702 0.790909,0 1.349256,-0.330892 1.676033,-0.992727 h 1.585785 c -0.214711,0.653256 -0.605951,1.19043 -1.173223,1.61157 -0.558843,0.412562 -1.255042,0.618843 -2.088595,0.618843 -0.678843,0 -1.289256,-0.150397 -1.830744,-0.45124 -0.533058,-0.309421 -0.954049,-0.73914 -1.263471,-1.289256 -0.300992,-0.558644 -0.451239,-1.203272 -0.451239,-1.933884 0,-0.730562 0.146281,-1.370876 0.438347,-1.920991 0.300991,-0.558645 0.71752,-0.988413 1.250578,-1.289256 0.541488,-0.300793 1.16033,-0.45124 1.856529,-0.45124 0.670413,0 1.267934,0.146132 1.792066,0.438347 0.524132,0.292265 0.932727,0.704827 1.224793,1.237686 0.292066,0.524331 0.438347,1.130281 0.438347,1.817851 z m -1.534215,-0.464132 c -0.0084,-0.541488 -0.201818,-0.975521 -0.580165,-1.302149 -0.378347,-0.326578 -0.846446,-0.489917 -1.405289,-0.489917 -0.507273,0 -0.941157,0.163339 -1.302149,0.489917 -0.360991,0.31805 -0.575702,0.752083 -0.644628,1.302149 z"
         fill="#ffffff"
         id="path464"
         style="stroke-width:0.495868" />
      <path
         d="m 98.713292,32.448043 c 0.214711,-0.360992 0.498347,-0.640314 0.850909,-0.838016 0.360992,-0.206281 0.786449,-0.309422 1.276359,-0.309422 v 1.521322 h -0.37388 c -0.576198,0 -1.014545,0.146133 -1.315041,0.438347 -0.292562,0.292265 -0.438347,0.799339 -0.438347,1.521322 v 3.738843 H 97.24354 v -7.103801 h 1.469752 z"
         fill="#ffffff"
         id="path466"
         style="stroke-width:0.495868" />
      <path
         d="m 102.78437,38.610687 c -0.26628,0 -0.48992,-0.09025 -0.67041,-0.270744 -0.1805,-0.180496 -0.27075,-0.403884 -0.27075,-0.670364 0,-0.266429 0.0902,-0.489966 0.27075,-0.670462 0.18049,-0.180496 0.40413,-0.270744 0.67041,-0.270744 0.25785,0 0.47702,0.09025 0.65752,0.270744 0.1805,0.180496 0.27074,0.404033 0.27074,0.670462 0,0.26648 -0.0902,0.489868 -0.27074,0.670364 -0.1805,0.180496 -0.39967,0.270744 -0.65752,0.270744 z"
         fill="#ffffff"
         id="path468"
         style="stroke-width:0.495868" />
      <path
         d="m 106.04916,30.475481 c -0.26677,0 -0.48991,-0.09025 -0.67041,-0.270743 -0.1805,-0.180496 -0.27074,-0.403934 -0.27074,-0.670394 0,-0.266444 0.0902,-0.489917 0.27074,-0.670413 0.1805,-0.180496 0.40364,-0.270744 0.67041,-0.270744 0.25785,0 0.47703,0.09025 0.65752,0.270744 0.1805,0.180496 0.27075,0.403969 0.27075,0.670413 0,0.26646 -0.0902,0.489898 -0.27075,0.670394 -0.18049,0.180495 -0.39967,0.270743 -0.65752,0.270743 z m 0.72199,0.941157 v 7.103801 h -1.46976 v -7.103801 z"
         fill="#ffffff"
         id="path470"
         style="stroke-width:0.495868" />
      <path
         d="m 111.78189,38.636472 c -0.67041,0 -1.27636,-0.150397 -1.81785,-0.45124 -0.54149,-0.309421 -0.96694,-0.73914 -1.27636,-1.289256 -0.30943,-0.558644 -0.46414,-1.203272 -0.46414,-1.933884 0,-0.721983 0.15918,-1.362297 0.47703,-1.920991 0.31834,-0.558645 0.75223,-0.988413 1.30215,-1.289256 0.55041,-0.300793 1.16479,-0.45124 1.84363,-0.45124 0.67934,0 1.29372,0.150447 1.84364,0.45124 0.55041,0.300843 0.9843,0.730611 1.30215,1.289256 0.31834,0.558694 0.47702,1.199008 0.47702,1.920991 0,0.721984 -0.16314,1.362347 -0.48992,1.920992 -0.32628,0.558694 -0.77355,0.992727 -1.34082,1.302148 -0.55835,0.300843 -1.17719,0.45124 -1.85653,0.45124 z m 0,-1.276364 c 0.37835,0 0.73091,-0.09025 1.05719,-0.270743 0.33521,-0.180496 0.60595,-0.45124 0.81223,-0.812232 0.20628,-0.360991 0.30942,-0.799338 0.30942,-1.315041 0,-0.515702 -0.0987,-0.949735 -0.29653,-1.302148 -0.19735,-0.360992 -0.45967,-0.631736 -0.78644,-0.812231 -0.32628,-0.180496 -0.67885,-0.270744 -1.05719,-0.270744 -0.37785,0 -0.73042,0.09025 -1.05719,0.270744 -0.31785,0.180495 -0.57124,0.451239 -0.76066,0.812231 -0.18893,0.352413 -0.28364,0.786446 -0.28364,1.302148 0,0.764975 0.19339,1.358033 0.58017,1.779174 0.3957,0.412561 0.88958,0.618842 1.48264,0.618842 z"
         fill="#ffffff"
         id="path472"
         style="stroke-width:0.495868" />
    </g>
    <g
       id="g667"
       transform="matrix(0.50741001,0,0,0.50741001,101.43098,18.653215)">
      <g
         id="g687"
         transform="matrix(1.1130115,0,0,1.1130115,4.4233278,-9.5082503)">
        <path
           d="m 48.2754,35.2589 c 0,-0.6392 0.1473,-1.2126 0.4418,-1.7202 0.3008,-0.5076 0.705,-0.9024 1.2126,-1.1844 0.5139,-0.2883 1.0747,-0.4324 1.6826,-0.4324 0.6956,0 1.3129,0.1723 1.8518,0.517 0.5452,0.3384 0.94,0.8209 1.1844,1.4476 h -1.2878 c -0.1692,-0.3447 -0.4042,-0.6016 -0.705,-0.7708 -0.3008,-0.1692 -0.6486,-0.2538 -1.0434,-0.2538 -0.4324,0 -0.8178,0.0971 -1.1562,0.2914 -0.3384,0.1942 -0.6047,0.4731 -0.799,0.8366 -0.188,0.3634 -0.282,0.7864 -0.282,1.269 0,0.4825 0.094,0.9055 0.282,1.269 0.1943,0.3634 0.4606,0.6454 0.799,0.846 0.3384,0.1942 0.7238,0.2914 1.1562,0.2914 0.3948,0 0.7426,-0.0846 1.0434,-0.2538 0.3008,-0.1692 0.5358,-0.4262 0.705,-0.7708 h 1.2878 c -0.2444,0.6266 -0.6392,1.1092 -1.1844,1.4476 -0.5389,0.3384 -1.1562,0.5076 -1.8518,0.5076 -0.6141,0 -1.175,-0.141 -1.6826,-0.423 -0.5076,-0.2883 -0.9118,-0.6862 -1.2126,-1.1938 -0.2945,-0.5076 -0.4418,-1.081 -0.4418,-1.7202 z"
           fill="#98a2b3"
           id="path474" />
        <path
           d="m 61.5147,38.6053 c -0.6079,0 -1.1687,-0.141 -1.6826,-0.423 -0.5076,-0.2883 -0.9118,-0.6862 -1.2126,-1.1938 -0.2945,-0.5139 -0.4418,-1.0904 -0.4418,-1.7296 0,-0.6392 0.1473,-1.2126 0.4418,-1.7202 0.3008,-0.5076 0.705,-0.9024 1.2126,-1.1844 0.5139,-0.2883 1.0747,-0.4324 1.6826,-0.4324 0.6141,0 1.175,0.1441 1.6826,0.4324 0.5139,0.282 0.9181,0.6768 1.2126,1.1844 0.2945,0.5076 0.4418,1.081 0.4418,1.7202 0,0.6392 -0.1473,1.2157 -0.4418,1.7296 -0.2945,0.5076 -0.6987,0.9055 -1.2126,1.1938 -0.5076,0.282 -1.0685,0.423 -1.6826,0.423 z m 0,-0.9306 c 0.4324,0 0.8178,-0.0972 1.1562,-0.2914 0.3384,-0.2006 0.6016,-0.4826 0.7896,-0.846 0.1943,-0.3698 0.2914,-0.7959 0.2914,-1.2784 0,-0.4826 -0.0971,-0.9056 -0.2914,-1.269 -0.188,-0.3635 -0.4512,-0.6424 -0.7896,-0.8366 -0.3384,-0.1943 -0.7238,-0.2914 -1.1562,-0.2914 -0.4324,0 -0.8178,0.0971 -1.1562,0.2914 -0.3384,0.1942 -0.6047,0.4731 -0.799,0.8366 -0.188,0.3634 -0.282,0.7864 -0.282,1.269 0,0.4825 0.094,0.9086 0.282,1.2784 0.1943,0.3634 0.4606,0.6454 0.799,0.846 0.3384,0.1942 0.7238,0.2914 1.1562,0.2914 z"
           fill="#98a2b3"
           id="path476" />
        <path
           d="m 75.419,32.0065 v 6.533 h -1.0716 v -4.4744 l -1.9928,4.4744 H 71.612 l -2.0022,-4.4744 v 4.4744 h -1.0716 v -6.533 h 1.1562 l 2.2936,5.123 2.2842,-5.123 z"
           fill="#98a2b3"
           id="path478" />
        <path
           d="m 86.3402,32.0065 v 6.533 h -1.0715 v -4.4744 l -1.9929,4.4744 H 82.5332 L 80.531,34.0651 v 4.4744 h -1.0716 v -6.533 h 1.1563 l 2.2935,5.123 2.2843,-5.123 z"
           fill="#98a2b3"
           id="path480" />
        <path
           d="m 91.4429,32.0065 v 4.1642 c 0,0.495 0.1285,0.8679 0.3854,1.1186 0.2632,0.2506 0.6267,0.376 1.0904,0.376 0.47,0 0.8335,-0.1254 1.0903,-0.376 0.263,-0.2507 0.395,-0.6236 0.395,-1.1186 v -4.1642 h 1.072 v 4.1454 c 0,0.5326 -0.116,0.9838 -0.348,1.3536 -0.232,0.3697 -0.542,0.6454 -0.931,0.8272 -0.3884,0.1817 -0.8177,0.2726 -1.2877,0.2726 -0.47,0 -0.8993,-0.0909 -1.2878,-0.2726 -0.3823,-0.1818 -0.6862,-0.4575 -0.9118,-0.8272 -0.2256,-0.3698 -0.3384,-0.821 -0.3384,-1.3536 v -4.1454 z"
           fill="#98a2b3"
           id="path482" />
        <path
           d="m 104.87,38.5395 h -1.071 l -3.225,-4.8786 v 4.8786 h -1.0709 v -6.5424 h 1.0709 l 3.225,4.8692 v -4.8692 h 1.071 z"
           fill="#98a2b3"
           id="path484" />
        <path
           d="m 109.981,32.0065 v 6.533 h -1.072 v -6.533 z"
           fill="#98a2b3"
           id="path486" />
        <path
           d="m 118.24,32.0065 v 0.8742 h -1.739 v 5.6588 h -1.071 v -5.6588 h -1.749 v -0.8742 z"
           fill="#98a2b3"
           id="path488" />
        <path
           d="m 126.799,32.0065 -2.162,4.1642 v 2.3688 h -1.072 v -2.3688 l -2.171,-4.1642 h 1.194 l 1.513,3.2054 1.513,-3.2054 z"
           fill="#98a2b3"
           id="path490" />
      </g>
      <g
         id="g676"
         transform="matrix(1.1130115,0,0,1.1130115,-91.662054,-0.89678431)">
        <path
           d="m 136.427,32.8713 v 1.9176 h 2.256 v 0.8742 h -2.256 v 2.0022 h 2.538 v 0.8742 h -3.61 v -6.5424 h 3.61 v 0.8742 z"
           fill="#98a2b3"
           id="path492" />
        <path
           d="m 145.05,32.0065 c 0.696,0 1.304,0.1347 1.824,0.4042 0.526,0.2632 0.93,0.6454 1.212,1.1468 0.289,0.495 0.433,1.0747 0.433,1.739 0,0.6642 -0.144,1.2408 -0.433,1.7296 -0.282,0.4888 -0.686,0.8648 -1.212,1.128 -0.52,0.2569 -1.128,0.3854 -1.824,0.3854 h -2.134 v -6.533 z m 0,5.6588 c 0.765,0 1.351,-0.2068 1.758,-0.6204 0.407,-0.4136 0.611,-0.9964 0.611,-1.7484 0,-0.7583 -0.204,-1.3505 -0.611,-1.7766 -0.407,-0.4262 -0.993,-0.6392 -1.758,-0.6392 h -1.062 v 4.7846 z"
           fill="#98a2b3"
           id="path494" />
        <path
           d="m 153.284,32.0065 v 6.533 h -1.071 v -6.533 z"
           fill="#98a2b3"
           id="path496" />
        <path
           d="m 161.544,32.0065 v 0.8742 h -1.739 v 5.6588 h -1.072 v -5.6588 h -1.748 v -0.8742 z"
           fill="#98a2b3"
           id="path498" />
        <path
           d="m 166.333,32.0065 v 6.533 h -1.072 v -6.533 z"
           fill="#98a2b3"
           id="path500" />
        <path
           d="m 173.352,38.6053 c -0.608,0 -1.169,-0.141 -1.683,-0.423 -0.508,-0.2883 -0.912,-0.6862 -1.213,-1.1938 -0.294,-0.5139 -0.441,-1.0904 -0.441,-1.7296 0,-0.6392 0.147,-1.2126 0.441,-1.7202 0.301,-0.5076 0.705,-0.9024 1.213,-1.1844 0.514,-0.2883 1.075,-0.4324 1.683,-0.4324 0.614,0 1.175,0.1441 1.682,0.4324 0.514,0.282 0.918,0.6768 1.213,1.1844 0.294,0.5076 0.442,1.081 0.442,1.7202 0,0.6392 -0.148,1.2157 -0.442,1.7296 -0.295,0.5076 -0.699,0.9055 -1.213,1.1938 -0.507,0.282 -1.068,0.423 -1.682,0.423 z m 0,-0.9306 c 0.432,0 0.817,-0.0972 1.156,-0.2914 0.338,-0.2006 0.601,-0.4826 0.789,-0.846 0.195,-0.3698 0.292,-0.7959 0.292,-1.2784 0,-0.4826 -0.097,-0.9056 -0.292,-1.269 -0.188,-0.3635 -0.451,-0.6424 -0.789,-0.8366 -0.339,-0.1943 -0.724,-0.2914 -1.156,-0.2914 -0.433,0 -0.818,0.0971 -1.157,0.2914 -0.338,0.1942 -0.604,0.4731 -0.799,0.8366 -0.188,0.3634 -0.282,0.7864 -0.282,1.269 0,0.4825 0.094,0.9086 0.282,1.2784 0.195,0.3634 0.461,0.6454 0.799,0.846 0.339,0.1942 0.724,0.2914 1.157,0.2914 z"
           fill="#98a2b3"
           id="path502" />
        <path
           d="m 185.742,38.5395 h -1.071 l -3.224,-4.8786 v 4.8786 h -1.072 v -6.5424 h 1.072 l 3.224,4.8692 v -4.8692 h 1.071 z"
           fill="#98a2b3"
           id="path504" />
      </g>
      <text
         xml:space="preserve"
         style="font-variant:normal;font-weight:bold;font-stretch:normal;font-size:59.8433px;font-family:Rajdhani;-inkscape-font-specification:Rajdhani-Bold;writing-mode:lr-tb;fill:#e6e6e6;fill-opacity:1;fill-rule:nonzero;stroke:none;stroke-width:1.12799"
         id="text30"
         x="-115.10325"
         y="17.164949"><tspan
           x="-115.10325 -83.26651 -52.028225 -20.430874 11.585382 42.404758 84.355003 115.8925"
           y="17.164949"
           sodipodi:role="line"
           id="tspan28"
           style="fill:#e6e6e6;stroke-width:1.12799">ARDUXMON</tspan></text>
    </g>
  </g>
  <defs
     id="defs536">
    <filter
       id="filter0_dd_10456_446427"
       x="-3.01562"
       y="-2.2285199"
       width="38.709202"
       height="52.303699"
       filterUnits="userSpaceOnUse"
       color-interpolation-filters="sRGB">
      <feFlood
         flood-opacity="0"
         result="BackgroundImageFix"
         id="feFlood508" />
      <feColorMatrix
         in="SourceAlpha"
         type="matrix"
         values="0 0 0 0 0 0 0 0 0 0 0 0 0 0 0 0 0 0 127 0"
         result="hardAlpha"
         id="feColorMatrix510" />
      <feOffset
         dy="1"
         id="feOffset512" />
      <feGaussianBlur
         stdDeviation="1"
         id="feGaussianBlur514" />
      <feColorMatrix
         type="matrix"
         values="0 0 0 0 0.0627451 0 0 0 0 0.0941176 0 0 0 0 0.156863 0 0 0 0.06 0"
         id="feColorMatrix516" />
      <feBlend
         mode="normal"
         in2="BackgroundImageFix"
         result="effect1_dropShadow_10456_446427"
         id="feBlend518" />
      <feColorMatrix
         in="SourceAlpha"
         type="matrix"
         values="0 0 0 0 0 0 0 0 0 0 0 0 0 0 0 0 0 0 127 0"
         result="hardAlpha"
         id="feColorMatrix520" />
      <feOffset
         dy="1"
         id="feOffset522" />
      <feGaussianBlur
         stdDeviation="1.5"
         id="feGaussianBlur524" />
      <feColorMatrix
         type="matrix"
         values="0 0 0 0 0.0627451 0 0 0 0 0.0941176 0 0 0 0 0.156863 0 0 0 0.1 0"
         id="feColorMatrix526" />
      <feBlend
         mode="normal"
         in2="effect1_dropShadow_10456_446427"
         result="effect2_dropShadow_10456_446427"
         id="feBlend528" />
      <feBlend
         mode="normal"
         in="SourceGraphic"
         in2="effect2_dropShadow_10456_446427"
         result="shape"
         id="feBlend530" />
    </filter>
    <clipPath
       id="clip0_10456_446427">
      <rect
         width="190"
         height="46"
         fill="#ffffff"
         id="rect533"
         x="0"
         y="0" />
    </clipPath>
    <clipPath
       clipPathUnits="userSpaceOnUse"
       id="clipPath58">
      <path
         d="M 0,841.89 H 595.276 V 0 H 0 Z"
         id="path56" />
    </clipPath>
  </defs>
  <g
     id="g52"
     transform="matrix(0.13337005,0,0,-0.13337005,-21.866843,83.707799)">
    <g
       id="g54"
       clip-path="url(#clipPath58)">
      <g
         id="g60"
         transform="translate(410.6013,283.1583)">
        <path
           d="m 0,0 h -225.928 c -11.384,0 -20.699,9.314 -20.699,20.699 v 302.693 c 0,11.385 9.315,20.699 20.699,20.699 H 0 c 11.385,0 20.699,-9.314 20.699,-20.699 V 20.699 C 20.699,9.314 11.385,0 0,0"
           style="fill:#231f20;fill-opacity:1;fill-rule:nonzero;stroke:none"
           id="path62" />
      </g>
      <g
         id="g64"
         transform="translate(361.9041,551.9381)">
        <path
           d="M 0,0 C 5.037,4.702 10.1,9.427 14.683,13.706 11.687,17.12 9.197,19.957 6.716,22.785 1.69,17.783 -3.168,12.947 -8.334,7.805 -5.451,5.105 -2.627,2.46 0,0 m 4.364,39.251 c -0.031,2.295 -2.358,4.691 -4.563,4.699 -2.485,0.009 -4.524,-2.057 -4.506,-4.568 0.018,-2.702 2.05,-4.658 4.741,-4.565 2.398,0.083 4.36,2.095 4.328,4.434 M -21.342,15.03 c 2.421,2.543 4.714,5.088 7.162,7.474 1.552,1.514 2.074,3.175 2.081,5.33 0.026,6.85 0.277,13.699 0.433,20.549 0.044,1.926 -2.431,4.438 -4.23,4.317 -1.83,-0.122 -3.287,-2.339 -3.19,-4.725 0.189,-4.663 0.132,-9.345 0.55,-13.985 0.403,-4.463 -1.249,-7.707 -4.237,-10.939 -4.509,-4.876 -4.549,-3.618 1.431,-8.021 M 32.314,54.253 C 21.994,54.438 13.077,45.703 13.143,35.473 13.209,25.25 22.092,16.404 32.222,16.475 42.253,16.546 50.466,24.934 50.48,35.124 50.495,45.516 42.368,54.073 32.314,54.253 M -156.009,-4.883 c 6.012,0.237 12.04,0.069 18.061,0.089 0.993,0.003 1.985,0.112 3.074,0.178 -1.409,4.132 -5.658,7.318 -9.296,7.255 -1.911,-0.034 -3.823,-0.065 -5.734,-0.072 -3.223,-0.011 -6.446,-0.003 -9.87,-0.003 0,-1.543 0.042,-2.585 -0.008,-3.624 -0.128,-2.662 0.743,-3.942 3.773,-3.823 M 40.048,3.098 c 0.032,-2.202 1.806,-3.927 3.995,-3.886 1.933,0.036 3.909,1.93 3.942,3.778 0.036,1.948 -2.03,4.064 -4.007,4.105 -2.087,0.044 -3.961,-1.863 -3.93,-3.997 M -89.453,35.345 c 0.702,-0.126 2.315,1.554 2.46,2.573 0.13,0.918 -1.184,2.041 -1.861,3.073 -0.421,0.026 -0.843,0.051 -1.266,0.076 -0.811,-1.056 -2.384,-2.24 -2.234,-3.134 0.179,-1.058 1.752,-2.383 2.901,-2.588 m -0.125,-5.075 c -4.442,0.057 -7.748,3.372 -7.754,7.775 -0.006,4.234 3.311,7.631 7.52,7.704 4.351,0.076 8.091,-3.654 7.994,-7.971 -0.095,-4.224 -3.545,-7.562 -7.76,-7.508 m 36.721,9.922 c 0.083,6.251 -5.186,11.788 -11.223,11.794 -5.999,0.006 -11.152,-5.251 -11.246,-11.473 -0.094,-6.121 5.257,-11.356 11.58,-11.329 5.951,0.025 10.808,4.935 10.889,11.008 m 14.302,-4.998 c 1.093,0.218 2.527,1.729 2.662,2.83 0.116,0.943 -1.388,2.085 -2.176,3.139 -0.428,-0.026 -0.856,-0.051 -1.284,-0.077 -0.688,-1.143 -2.008,-2.361 -1.883,-3.408 0.117,-0.989 1.921,-2.636 2.681,-2.484 m 0.117,-4.935 c -4.317,-0.096 -7.669,3.313 -7.676,7.804 -0.006,4.247 3.182,7.656 7.179,7.676 4.51,0.022 8.21,-3.521 8.165,-7.818 -0.043,-4.17 -3.444,-7.568 -7.668,-7.662 m -127.111,-154.547 c -0.47,0.044 -0.94,0.088 -1.41,0.131 -0.81,-1.027 -2.254,-2.057 -2.25,-3.081 0.005,-1.038 1.441,-2.07 2.251,-3.104 1.069,0.852 2.729,1.537 3.03,2.606 0.261,0.923 -1.021,2.282 -1.621,3.448 m -0.993,-10.857 c -4.25,0.031 -8.044,3.666 -8.055,7.715 -0.01,4.071 3.611,7.776 7.616,7.796 4.749,0.024 8.437,-3.443 8.397,-7.893 -0.039,-4.401 -3.434,-7.651 -7.958,-7.618 M 31.962,2.544 c -5.024,0 -9.86,0 -14.697,0 C 12.87,2.545 9.188,-0.107 7.493,-4.571 h 24.469 z m 12.612,-153.345 c -0.154,1.101 -1.629,2.639 -2.697,2.811 -0.989,0.16 -2.231,-1.235 -3.36,-1.946 -0.02,-0.422 -0.04,-0.844 -0.06,-1.266 0.964,-0.756 1.843,-1.967 2.91,-2.166 1.712,-0.318 3.479,0.628 3.207,2.567 m 4.838,0.165 c -0.052,-4.326 -3.294,-7.563 -7.587,-7.573 -4.52,-0.01 -7.857,3.168 -7.965,7.586 -0.101,4.18 3.58,7.893 7.806,7.873 4.307,-0.02 7.798,-3.574 7.746,-7.886 m -9.072,26.277 c -0.412,0.016 -0.824,0.031 -1.237,0.047 -0.81,-1.087 -2.251,-2.184 -2.238,-3.26 0.013,-0.93 1.795,-2.665 2.589,-2.555 1.094,0.151 2.517,1.569 2.804,2.698 0.206,0.808 -1.22,2.032 -1.918,3.07 m 7.15,-3.187 c -0.107,-4.27 -3.673,-7.611 -8.094,-7.582 -4.099,0.026 -7.813,3.615 -7.837,7.575 -0.028,4.265 3.657,8.017 7.776,7.918 4.569,-0.109 8.261,-3.69 8.155,-7.911 m -3.365,-37.037 c -2.057,0.068 -3.977,-1.827 -4.062,-4.008 -0.09,-2.248 1.632,-4.117 3.824,-4.149 2.048,-0.03 4.213,1.973 4.23,3.914 0.017,1.87 -2.16,4.184 -3.992,4.243 m -21.354,11.609 c 2.204,0.015 3.466,1.297 3.468,3.342 0.003,2.178 -1.464,3.384 -3.511,3.722 -2.264,-0.195 -3.408,-1.494 -3.63,-3.502 -0.205,-1.853 1.676,-3.576 3.673,-3.562 M -123.576,39.178 c -0.029,2.529 -2.336,4.871 -4.683,4.754 -2.318,-0.115 -4.158,-2.18 -4.093,-4.593 0.072,-2.614 2.043,-4.603 4.473,-4.511 2.481,0.094 4.33,1.964 4.303,4.35 m -29.843,-188.802 c 0.195,-2.039 1.425,-3.19 2.978,-3.326 2.458,-0.005 4.087,1.487 4.132,3.285 0.046,1.845 -1.754,3.711 -3.576,3.707 -1.949,-0.005 -3.719,-1.732 -3.534,-3.666 m -21.729,82.695 c 0.038,-2.243 1.919,-4.12 4.228,-4.218 2.258,-0.097 4.239,1.786 4.279,4.065 0.04,2.217 -1.853,4.242 -4.063,4.347 -2.454,0.117 -4.485,-1.8 -4.444,-4.194 m 9.128,-83.617 c -0.167,1.041 -1.934,2.643 -2.824,2.534 -1.038,-0.128 -2.433,-1.752 -2.623,-2.9 -0.137,-0.83 1.442,-1.943 2.882,-3.691 1.266,1.877 2.722,3.097 2.565,4.057 m -2.981,-7.705 c -4.118,0.001 -7.681,3.531 -7.685,7.614 -0.003,4.438 3.39,7.947 7.688,7.946 4.335,-0.001 8.131,-3.773 8.055,-8.006 -0.077,-4.241 -3.612,-7.554 -8.058,-7.554 m -6.34,-10.443 c 0.018,-2.27 1.716,-3.969 3.97,-3.969 2.236,0 4.123,1.844 4.055,3.962 -0.061,1.855 -2.344,4.183 -4.111,4.192 -1.918,0.009 -3.928,-2.142 -3.914,-4.185 m 62.382,221.443 c -1.659,0.019 -3.577,-2.196 -3.556,-4.206 0.078,-7.241 0.168,-14.482 0.306,-21.723 0.016,-0.814 0.107,-1.849 0.597,-2.397 2.962,-3.319 6.049,-6.527 9.127,-9.807 1.93,1.623 3.298,2.772 4.951,4.16 -2.191,2.438 -4.366,4.488 -6.06,6.879 -1.07,1.513 -1.962,3.526 -1.994,5.331 -0.102,5.715 0.236,11.438 0.407,17.158 0.069,2.283 -1.813,4.582 -3.778,4.605 M -0.594,-167.085 c -0.666,0.664 -1.566,1.038 -2.506,1.038 h -13.472 c -0.94,0 -1.842,-0.374 -2.506,-1.038 l -19.67,-19.67 H -57.992 -69.91 -89.154 l -19.668,19.67 c -0.666,0.664 -1.567,1.038 -2.506,1.038 h -13.473 c -0.939,0 -1.842,-0.374 -2.506,-1.038 l -30.304,-30.304 c -1.383,-1.384 -1.383,-3.628 0,-5.012 0.693,-0.691 1.599,-1.037 2.506,-1.037 0.908,0 1.814,0.346 2.505,1.037 l 29.266,29.267 h 10.537 l 19.67,-19.67 c 0.664,-0.664 1.566,-1.037 2.506,-1.037 h 20.711 11.918 20.713 c 0.939,0 1.84,0.373 2.506,1.037 l 19.668,19.67 h 10.537 l 29.265,-29.267 c 0.694,-0.691 1.6,-1.037 2.506,-1.037 0.906,0 1.815,0.346 2.506,1.037 1.385,1.384 1.385,3.628 0,5.012 z m -23.043,-73.931 c 0.248,-1.567 1.993,-2.895 3.061,-4.331 1.166,0.882 2.442,1.655 3.442,2.695 0.413,0.43 0.323,1.433 0.305,2.171 -0.067,2.673 -0.276,5.345 -0.288,8.018 -0.02,4.206 0.086,8.954 0.014,13.159 -0.003,0.265 -0.052,0.515 -0.123,0.754 -0.005,3.898 -0.004,7.661 -0.015,10.543 -0.008,2.155 -0.53,3.817 -2.082,5.331 -2.448,2.385 -4.74,4.93 -7.161,7.473 -5.981,-4.403 -5.941,-3.145 -1.432,-8.021 2.988,-3.232 4.64,-6.476 4.237,-10.939 -0.418,-4.639 -0.031,-16.536 -0.219,-21.198 -0.012,-0.277 -0.004,-0.446 0.016,-0.544 -0.038,-1.722 -0.02,-3.436 0.245,-5.111 m -64.526,9.113 c -2.452,-0.068 -3.97,-1.751 -3.906,-4.331 0.063,-2.589 1.955,-4.524 4.285,-4.387 2.246,0.133 4.117,2.15 4.072,4.389 -0.047,2.386 -2.111,4.395 -4.451,4.329 m 11.147,30.404 c -5.025,-5.002 -9.882,-9.838 -15.048,-14.98 2.882,-2.699 5.707,-5.345 8.334,-7.805 5.037,4.702 10.098,9.428 14.682,13.706 -2.996,3.414 -5.485,6.251 -7.968,9.079 m 73.87,-26.654 c -2.458,-0.64 -3.685,-1.77 -3.182,-3.42 0.345,-1.13 1.888,-1.894 2.895,-2.823 0.907,1.037 2.429,2.017 2.531,3.127 0.089,0.962 -1.434,2.071 -2.244,3.116 m -0.231,4.641 c 4.283,-0.151 7.566,-3.741 7.441,-8.139 -0.13,-4.63 -3.627,-7.998 -8.072,-7.775 -4.231,0.212 -7.387,3.841 -7.218,8.301 0.176,4.634 3.408,7.768 7.849,7.613 m 50.842,156.544 c -0.007,2.132 -2.095,4.234 -4.188,4.217 -2.396,-0.02 -4.406,-2.051 -4.313,-4.357 0.088,-2.145 2.218,-4.189 4.302,-4.127 2.129,0.064 4.206,2.174 4.199,4.267 m -212.673,-22.571 v 6.737 h -17.094 v 28.815 h 25.269 v 7.037 h -25.39 c 0,3.375 -0.031,6.524 0.026,9.671 0.011,0.623 0.165,1.444 0.576,1.827 6.291,5.869 12.609,11.711 18.989,17.483 1.416,1.281 2.56,0.676 2.749,-1.139 0.188,-1.801 0.102,-3.631 0.109,-5.449 0.012,-3.103 0.003,-6.206 0.003,-9.271 h 5.945 c 0,4.448 -0.379,8.771 0.099,12.997 0.552,4.866 -1.766,7.698 -5.415,10.112 -1.828,1.211 -3.395,1.408 -5.123,-0.202 -4.406,-4.106 -8.889,-8.13 -13.341,-12.186 -1.478,-1.348 -2.957,-2.696 -4.573,-4.17 V 59.89 H 54.236 v -86.248 c -5.441,4.985 -10.597,9.818 -15.9,14.484 -1.186,1.044 -3.517,2.502 -4.239,2.048 -2.66,-1.671 -6.476,-3.777 -6.916,-6.244 -1.021,-5.713 -0.325,-11.732 -0.325,-17.704 H 32.6 c 0,4.732 -0.06,9.225 0.048,13.714 0.023,0.912 0.676,1.808 1.039,2.71 0.808,-0.33 1.792,-0.467 2.399,-1.02 5.652,-5.156 11.255,-10.368 16.826,-15.612 0.652,-0.614 1.43,-1.5 1.466,-2.292 0.159,-3.516 0.069,-7.043 0.069,-10.801 H 29.955 v -7.267 H 54.254 V -82.887 H 37.883 v -6.816 c 0.716,-0.041 1.269,-0.099 1.824,-0.099 6.686,-0.006 13.372,-0.004 20.573,-0.004 0,1.993 -10e-4,3.603 10e-4,5.213 0.018,27.654 0.056,55.308 0.05,82.962 -0.005,19.615 -0.036,39.231 -0.129,58.846 -0.022,4.71 -2.556,7.665 -7.175,8.675 -1.478,0.323 -3.019,0.506 -4.531,0.506 -62.869,0.021 -125.738,0.015 -188.607,0.011 -12.153,-10e-4 -24.306,0.023 -36.458,-0.014 -8.016,-0.025 -11.501,-3.454 -11.644,-11.471 -0.076,-4.303 0.039,-8.61 0.036,-12.916 -0.025,-41.816 -0.057,-83.631 -0.087,-125.448 -0.002,-2.065 -10e-4,-4.131 -10e-4,-6.097 z M 32.496,-244.672 c 10.975,0.202 17.103,8.118 17.858,17.591 0.072,10.118 -8.369,18.733 -18.473,18.857 -9.456,0.116 -18.379,-8.678 -18.546,-18.279 -0.176,-10.097 8.254,-18.37 19.161,-18.169 m -96.568,0.001 c 6.165,0 11.161,4.996 11.161,11.16 0,6.165 -4.996,11.161 -11.161,11.161 -6.164,0 -11.16,-4.996 -11.16,-11.161 0,-6.164 4.996,-11.16 11.16,-11.16 m 78.662,35.442 c -4.851,5.786 -9.375,11.184 -13.9,16.581 -0.498,0.049 -0.995,0.098 -1.493,0.147 -1.344,-1.75 -2.602,-3.577 -4.062,-5.224 -1.086,-1.226 -1.316,-2.315 -0.107,-3.453 4.66,-4.387 9.351,-8.74 13.571,-12.677 2.127,1.643 4.682,3.615 5.991,4.626 M -175.269,3.425 c -0.15,-2.006 1.684,-4.07 3.747,-4.216 2.293,-0.162 4.14,1.321 4.358,3.499 0.209,2.092 -1.71,4.312 -3.868,4.473 -2.061,0.153 -4.077,-1.634 -4.237,-3.756 m 32.654,11.153 c 5.078,-4.791 10.132,-9.559 15.373,-14.503 2.205,2.276 4.842,4.996 6.866,7.085 -4.853,5.169 -9.592,10.215 -14.594,15.542 -2.475,-2.631 -4.942,-5.252 -7.645,-8.124 m -17.011,-222.953 c -10.038,0.169 -18.478,-8.158 -18.498,-18.25 -0.021,-9.978 8.461,-18.389 18.93,-18.036 10.656,0.359 17.695,8.037 17.9,17.795 0.068,10.036 -8.143,18.319 -18.332,18.491 m 19.251,243.796 c 0.09,9.793 -9.08,18.871 -18.985,18.793 -10.404,-0.081 -18.737,-8.432 -18.753,-18.794 -0.017,-10.174 8.741,-18.922 18.97,-18.952 9.921,-0.029 18.674,8.81 18.768,18.953 m 104.593,-250.626 c -4.583,4.279 -9.646,9.004 -14.682,13.706 -2.628,-2.459 -5.452,-5.105 -8.334,-7.804 5.165,-5.142 10.024,-9.978 15.049,-14.981 2.481,2.828 4.971,5.665 7.967,9.079 m -85.494,15.311 c -2.567,2.521 -4.585,4.505 -6.939,6.816 -4.847,-5.163 -9.583,-10.205 -14.474,-15.414 1.708,-1.796 3.853,-4.052 5.414,-5.693 5.396,4.819 10.623,9.488 15.999,14.291 m 4.261,-37.337 c 0,4.166 0.086,8.155 -0.068,12.135 -0.033,0.858 -0.758,2.025 -1.497,2.409 -0.523,0.27 -1.757,-0.363 -2.406,-0.91 -1.221,-1.028 -2.248,-2.286 -3.782,-3.895 0.373,2.758 -0.505,4.575 -2.791,4.945 -0.818,0.131 -2.662,-1.201 -2.684,-1.907 -0.088,-2.758 2.121,-3.863 4.421,-4.689 -1.237,-3.945 -5.841,-6.086 -5.863,-10.696 2.488,-0.758 4.246,-0.524 5.674,1.645 1.46,2.217 3.285,4.192 5.053,6.4 -0.391,-1.908 -0.735,-3.586 -1.114,-5.437 z m 14.389,29.402 c 1.693,2.392 3.869,4.442 6.06,6.879 -1.653,1.389 -3.021,2.538 -4.952,4.161 -3.078,-3.28 -6.165,-6.488 -9.127,-9.807 -0.489,-0.547 -0.581,-1.582 -0.596,-2.398 -0.137,-7.164 -0.226,-14.328 -0.304,-21.494 h -0.001 v -0.146 c -10e-4,-0.028 -10e-4,-0.055 -10e-4,-0.082 0,-0.004 10e-4,-0.007 10e-4,-0.01 -10e-4,-3.357 -0.004,-6.713 0.001,-10.069 0.002,-2.048 1.915,-4.576 3.497,-4.636 1.416,-0.055 3.481,2.681 3.465,4.596 -0.022,2.82 -0.129,5.793 -0.201,8.766 0.058,0.319 0.095,0.652 0.085,1.011 -0.172,5.72 -0.024,12.184 0.078,17.899 0.033,1.805 0.925,3.818 1.995,5.33 m 62.958,-32.863 c 2.351,-0.06 4.339,1.893 4.404,4.326 0.062,2.278 -1.976,4.491 -4.224,4.59 -2.303,0.102 -4.28,-1.912 -4.289,-4.368 -0.011,-2.537 1.751,-4.486 4.109,-4.548 m 99.949,133.272 c 0.018,-27.654 0.056,-55.308 0.05,-82.962 -0.005,-19.616 -0.036,-39.231 -0.129,-58.846 -0.002,-0.362 -0.023,-0.711 -0.056,-1.054 -0.375,-4.095 -2.856,-6.688 -7.119,-7.621 -0.373,-0.081 -0.75,-0.153 -1.129,-0.217 -0.559,-0.19 -1.085,-0.306 -1.543,-0.306 h -228.479 c -0.317,0 -0.673,0.07 -1.043,0.173 -5.157,0.612 -7.915,3.163 -8.758,8.116 -0.068,0.25 -0.114,0.491 -0.114,0.712 v 0.049 c -0.096,0.763 -0.158,1.57 -0.174,2.441 -0.076,4.304 0.039,8.61 0.036,12.916 -0.025,41.816 -0.057,83.632 -0.087,125.448 -0.002,2.066 -10e-4,4.131 -10e-4,6.097 l 0.226,-0.255 v 1.376 h 41.881 v -6.714 h -36.208 v -1.072 l 0.064,-0.072 v -28.814 l -0.064,-22.069 v -33.467 c 3.468,3.632 6.538,6.993 9.763,10.198 7.396,7.348 14.855,14.63 22.319,21.908 1.097,1.071 2.212,2.767 3.907,0.612 1.359,-1.73 3.074,-3.207 0.648,-5.538 -8.625,-8.283 -17.144,-16.673 -25.698,-25.027 -3.218,-3.141 -6.464,-6.256 -9.599,-9.476 -0.656,-0.672 -1.251,-1.756 -1.256,-2.653 -0.074,-16.08 -0.055,-32.162 -0.054,-48.366 H 54.236 l 0.008,49.528 c -0.209,0.858 -0.681,1.743 -1.254,2.303 -11.281,11.033 -22.652,21.976 -33.959,32.984 -1.117,1.088 -3.076,1.834 -1.997,4.168 1.653,3.573 3.335,4.021 6.23,1.202 9.455,-9.213 18.849,-18.487 28.259,-27.744 0.792,-0.779 1.529,-1.618 2.722,-2.889 l 0.009,54.681 v 28.545 l 0.017,0.021 v 0.808 H 18.912 v 6.933 h 41.234 v -0.997 l 0.134,0.153 c 0,-1.992 -10e-4,-3.603 10e-4,-5.213"
           style="fill:#ffffff;fill-opacity:1;fill-rule:nonzero;stroke:none"
           id="path66" />
      </g>
      <g
         id="g68"
         transform="translate(264.7488,456.7765)">
        <path
           d="M 0,0 H 7.016 V -7.157 H 0 v -7.016 h -7.157 v 7.016 h -7.016 V 0 h 7.016 V 7.016 H 0 Z M 80.535,-7.157 H 59.347 V 0 h 21.188 z m 9.937,-35.092 c -0.321,-0.357 -1.023,-0.521 -1.549,-0.523 -6.297,-0.036 -12.594,-0.024 -19.232,-0.024 v 5.171 c 3.883,0 7.772,0.218 11.624,-0.063 3.674,-0.266 6.251,0.878 8.536,3.845 3.066,3.984 3.742,3.881 8.642,0.772 -2.696,-3.104 -5.323,-6.172 -8.021,-9.178 M 47.747,-4.021 c -0.545,11.351 9.222,21.498 20.024,22.108 15.083,0.851 23.76,-10.639 24.036,-21.034 0.322,-12.16 -9.053,-21.362 -21.759,-21.634 -12.454,-0.502 -21.739,8.838 -22.301,20.56 m -3.021,-44.667 c -1.496,-0.257 -3.031,-0.314 -4.551,-0.373 -2.42,-0.092 -4.119,0.954 -4.406,3.46 -0.243,2.121 -1.558,2.252 -3.212,2.31 -1.676,0.059 -2.063,-0.823 -2.255,-2.252 -0.297,-2.197 -1.791,-3.413 -3.912,-3.446 -2.175,-0.033 -4.41,0.087 -6.521,0.566 -2.421,0.55 -3.952,3.038 -2.968,5.014 5.13,10.303 10.44,20.515 15.687,30.76 0.345,-0.049 0.688,-0.098 1.032,-0.147 0.69,-1.107 1.451,-2.177 2.058,-3.328 4.357,-8.258 8.714,-16.518 13.008,-24.811 2.38,-4.598 1.206,-6.867 -3.96,-7.753 m -48.632,24.145 c -11.123,-0.66 -21.522,8.646 -21.299,21.618 0.211,12.259 10.575,21.603 23.399,20.999 C 9.004,17.566 19.047,7.274 18.785,-3.638 18.5,-15.534 8.481,-24.764 -3.906,-24.543 m 0.317,-18.276 c -3.654,0 -7.393,0.423 -10.998,-0.091 -6.711,-0.956 -11.596,1.298 -15.045,7.028 -0.576,0.958 -1.36,1.791 -2.184,2.857 4.557,3.022 5.401,3.048 8.276,-0.57 2.353,-2.96 4.918,-4.609 8.949,-4.123 3.561,0.429 7.214,0.09 11.002,0.09 z M 37.47,1.958 C 35.499,0.616 34.463,-0.59 33.257,-0.795 31.462,-1.1 30.061,0.139 30.108,2.017 c 0.048,1.825 1.14,3.54 3.167,3.155 1.25,-0.237 2.272,-1.676 4.195,-3.214 m -4.831,19.595 c 0.425,0.302 1.506,0.191 1.97,-0.152 3.433,-2.532 6.786,-5.172 9.985,-8.508 H 22.271 c -0.116,0.245 -0.232,0.491 -0.348,0.737 3.56,2.657 7.096,5.35 10.716,7.923 m 71.794,-44.91 c -0.661,1.29 -1.469,2.708 -1.498,4.082 -0.167,7.749 -0.365,15.512 -0.072,23.252 0.305,8.044 -1.649,14.908 -8.133,20.139 -0.674,0.544 -0.705,1.887 -1.034,2.86 1.094,0.074 2.416,0.586 3.242,0.151 4.545,-2.395 7.941,-6.075 9.785,-10.829 1.348,-3.479 1.971,-7.24 2.907,-10.833 -0.098,-0.044 0.131,-0.015 0.208,0.109 0.2,0.32 0.358,0.672 0.488,1.027 5.052,13.828 6.348,27.938 2.426,42.217 -6.031,21.952 -19.97,37.71 -39.365,48.965 -15.283,8.867 -31.803,12.426 -49.313,10.273 -17.023,-2.093 -32.207,-8.851 -45.02,-20.302 -18.308,-16.358 -28.86,-36.272 -26.921,-61.566 0.561,-7.336 2.108,-14.427 5.373,-21.165 0.366,1.176 0.471,2.355 0.589,3.532 0.828,8.291 4.885,14.514 12.112,18.607 0.684,0.388 1.807,0.001 2.726,-0.027 -0.191,-0.914 -0.253,-1.883 -0.616,-2.722 -0.246,-0.569 -0.909,-0.96 -1.393,-1.421 -4.832,-4.599 -7.126,-10.263 -7.125,-16.901 10e-4,-8.422 0.008,-16.844 -0.045,-25.265 -0.007,-0.995 -0.153,-2.11 -0.618,-2.96 -2.409,-4.412 -5.03,-8.712 -7.352,-13.168 -0.403,-0.772 -0.098,-2.422 0.507,-3.126 3.239,-3.767 6.774,-7.282 10.009,-11.053 1.693,-1.977 3.49,-2.779 6.135,-2.714 8.13,0.195 16.267,0.082 24.402,0.13 2.174,0.012 3.369,-0.603 3.194,-3.138 -0.21,-3.048 -0.046,-6.122 -0.043,-9.185 0.005,-4.13 0.007,-4.127 4.137,-4.925 0.155,-0.03 0.278,-0.22 0.446,-0.36 0,-1.599 -0.066,-3.221 0.016,-4.835 0.116,-2.289 1.414,-3.473 3.69,-3.499 2.377,-0.027 3.312,1.264 3.012,4.735 -0.189,2.2 0.283,3.813 2.471,4.517 4.018,1.295 6.697,-0.651 6.765,-4.826 0.01,-0.573 0.037,-1.148 0.084,-1.721 0.183,-2.223 1.519,-3.188 3.626,-3.15 2.097,0.037 3.827,0.652 3.883,3.195 0.036,1.692 0.007,3.385 0.007,5.103 h 10.869 c 0,-1.781 -0.055,-3.309 0.013,-4.831 0.112,-2.556 2.006,-3.871 4.508,-3.288 3.09,0.72 2.914,3.073 2.819,5.422 -0.118,2.926 0.771,3.972 3.651,4.332 3.839,0.479 5.638,-1.285 5.403,-5.192 -0.124,-2.069 -0.139,-4.205 2.741,-4.406 2.392,-0.167 3.824,1.429 3.878,4.232 0.027,1.415 0.005,2.831 0.005,4.423 4.575,0.32 4.589,0.32 4.635,4.645 0.032,2.966 0.201,5.947 -0.021,8.896 -0.218,2.892 0.813,3.882 3.706,3.834 8.228,-0.136 16.46,0.005 24.689,-0.074 1.98,-0.019 3.434,0.572 4.75,2.055 3.43,3.862 7.004,7.595 10.441,11.451 0.549,0.615 1.186,1.847 0.928,2.376 -2.129,4.36 -4.497,8.601 -6.707,12.922"
           style="fill:#ffffff;fill-opacity:1;fill-rule:nonzero;stroke:none"
           id="path70" />
      </g>
    </g>
  </g>
</svg>
